<svg width="40" height="41" viewBox="0 0 40 41" fill="none" xmlns="http://www.w3.org/2000/svg">
<path d="M27.7777 13.6669V10.3891C27.7777 9.36771 27.5765 8.35632 27.1856 7.41268C26.7948 6.46904 26.2218 5.61162 25.4996 4.88939C24.7774 4.16715 23.92 3.59425 22.9763 3.20338C22.0327 2.81251 21.0213 2.61133 19.9999 2.61133C18.9785 2.61133 17.9671 2.81251 17.0235 3.20338C16.0798 3.59425 15.2224 4.16715 14.5002 4.88939C13.7779 5.61162 13.205 6.46904 12.8142 7.41268C12.4233 8.35632 12.2221 9.36771 12.2221 10.3891V18.1669C12.2221 18.4616 12.3392 18.7442 12.5476 18.9526C12.7559 19.1609 13.0385 19.278 13.3332 19.278C13.6279 19.278 13.9105 19.1609 14.1189 18.9526C14.3273 18.7442 14.4443 18.4616 14.4443 18.1669V15.8891H23.3332V13.6669H14.4443V10.3891C14.4443 8.91568 15.0297 7.5026 16.0715 6.46073C17.1134 5.41887 18.5265 4.83355 19.9999 4.83355C21.4733 4.83355 22.8864 5.41887 23.9283 6.46073C24.9701 7.5026 25.5554 8.91568 25.5554 10.3891V18.1113C25.5554 18.406 25.6725 18.6886 25.8809 18.897C26.0893 19.1054 26.3719 19.2224 26.6666 19.2224C26.9612 19.2224 27.2439 19.1054 27.4522 18.897C27.6606 18.6886 27.7777 18.406 27.7777 18.1113V15.8891H33.3332V35.8891H6.66656V15.8891H9.99989V13.6669H4.44434V35.9891C4.44434 36.552 4.66793 37.0918 5.06592 37.4897C5.46391 37.8877 6.00371 38.1113 6.56656 38.1113H33.4332C33.9961 38.1113 34.5359 37.8877 34.9339 37.4897C35.3319 37.0918 35.5554 36.552 35.5554 35.9891V13.6669H27.7777Z" fill="black"/>
</svg>
