<svg width="36" height="36" viewBox="0 0 36 36" fill="none" xmlns="http://www.w3.org/2000/svg">
<g clip-path="url(#clip0_237_938)">
<path d="M34.0131 36.0001C35.1103 36.0001 36 35.1105 36 34.0132V1.98689C36 0.889453 35.1103 0 34.0131 0H1.98689C0.889313 0 0 0.889453 0 1.98689V34.0132C0 35.1105 0.889313 36.0001 1.98689 36.0001H34.0131Z" fill="#395185"/>
<path d="M24.8394 36V22.0589H29.519L30.2196 16.6258H24.8394V13.1569C24.8394 11.5839 25.2763 10.5119 27.5321 10.5119L30.4091 10.5106V5.65131C29.9113 5.58507 28.2036 5.43713 26.2168 5.43713C22.0687 5.43713 19.2289 7.96909 19.2289 12.619V16.6258H14.5374V22.0589H19.2289V36H24.8394Z" fill="white"/>
</g>
<defs>
<clipPath id="clip0_237_938">
<rect width="36" height="36" fill="white"/>
</clipPath>
</defs>
</svg>
