<svg width="40" height="41" viewBox="0 0 40 41" fill="none" xmlns="http://www.w3.org/2000/svg">
<path d="M19.9999 19.2223C21.5382 19.2223 23.042 18.7661 24.321 17.9115C25.6001 17.0569 26.597 15.8422 27.1857 14.421C27.7744 12.9998 27.9284 11.4359 27.6283 9.92716C27.3282 8.41842 26.5874 7.03255 25.4997 5.94481C24.4119 4.85707 23.0261 4.11631 21.5173 3.8162C20.0086 3.51609 18.4447 3.67012 17.0235 4.2588C15.6023 4.84748 14.3876 5.84438 13.533 7.12343C12.6783 8.40248 12.2222 9.90623 12.2222 11.4445C12.2222 13.5073 13.0416 15.4856 14.5002 16.9442C15.9588 18.4029 17.9372 19.2223 19.9999 19.2223ZM19.9999 5.88897C21.0987 5.88897 22.1728 6.2148 23.0864 6.82525C24.0001 7.43571 24.7121 8.30337 25.1326 9.31851C25.5531 10.3337 25.6631 11.4507 25.4488 12.5284C25.2344 13.606 24.7053 14.5959 23.9283 15.3729C23.1514 16.1499 22.1615 16.679 21.0838 16.8933C20.0061 17.1077 18.8891 16.9977 17.8739 16.5772C16.8588 16.1567 15.9911 15.4446 15.3807 14.531C14.7702 13.6174 14.4444 12.5433 14.4444 11.4445C14.4444 9.9711 15.0297 8.55803 16.0716 7.51616C17.1134 6.47429 18.5265 5.88897 19.9999 5.88897Z" fill="black"/>
<path d="M33.8557 27.4114C32.0738 25.5281 29.9265 24.0279 27.5452 23.0027C25.1638 21.9775 22.5983 21.4487 20.0057 21.4487C17.413 21.4487 14.8475 21.9775 12.4662 23.0027C10.0848 24.0279 7.93755 25.5281 6.15567 27.4114C5.76935 27.824 5.55479 28.3684 5.55567 28.9336V34.778C5.55567 35.3674 5.78979 35.9326 6.20654 36.3494C6.62329 36.7661 7.18852 37.0003 7.77789 37.0003H32.2223C32.8117 37.0003 33.3769 36.7661 33.7937 36.3494C34.2104 35.9326 34.4446 35.3674 34.4446 34.778V28.9336C34.4484 28.3699 34.2379 27.8257 33.8557 27.4114ZM32.2223 34.778H7.77789V28.9225C9.35259 27.2644 11.2482 25.944 13.3494 25.0417C15.4506 24.1394 17.7134 23.6741 20.0001 23.6741C22.2868 23.6741 24.5496 24.1394 26.6508 25.0417C28.752 25.944 30.6476 27.2644 32.2223 28.9225V34.778Z" fill="black" />
</svg>
