<svg width="40" height="40" viewBox="0 0 40 40" fill="none" xmlns="http://www.w3.org/2000/svg">
<path d="M18.1444 5.61103C20.5512 5.60883 22.9046 6.32053 24.9069 7.65608C26.9091 8.99163 28.4703 10.891 29.3929 13.114C30.3154 15.337 30.5579 17.7836 30.0898 20.1445C29.6216 22.5053 28.4637 24.6742 26.7626 26.3769C25.0615 28.0795 22.8936 29.2394 20.5332 29.7098C18.1728 30.1801 15.7259 29.9398 13.5021 29.0193C11.2783 28.0987 9.37746 26.5393 8.04007 24.5383C6.70269 22.5372 5.98885 20.1845 5.98885 17.7777C6.00344 14.5573 7.28844 11.4728 9.56458 9.1946C11.8407 6.91638 14.924 5.62856 18.1444 5.61103ZM18.1444 3.33325C15.2876 3.33325 12.4949 4.1804 10.1195 5.76758C7.74412 7.35476 5.89274 9.61067 4.79948 12.25C3.70621 14.8894 3.42016 17.7937 3.9775 20.5957C4.53485 23.3976 5.91055 25.9714 7.93064 27.9915C9.95073 30.0116 12.5245 31.3873 15.3264 31.9446C18.1284 32.5019 21.0327 32.2159 23.6721 31.1226C26.3114 30.0294 28.5673 28.178 30.1545 25.8026C31.7417 23.4272 32.5888 20.6345 32.5888 17.7777C32.5888 13.9468 31.067 10.2728 28.3582 7.56393C25.6493 4.85507 21.9753 3.33325 18.1444 3.33325Z" fill="black"/>
<path d="M38.889 36.9888L30.7001 28.7444L29.1223 30.3111L37.3112 38.5555C37.4141 38.6591 37.5363 38.7414 37.671 38.7978C37.8057 38.8541 37.9502 38.8834 38.0962 38.8839C38.2422 38.8844 38.3868 38.8562 38.5219 38.8008C38.657 38.7454 38.7798 38.6639 38.8834 38.5611C38.987 38.4582 39.0693 38.3359 39.1257 38.2012C39.182 38.0665 39.2113 37.9221 39.2118 37.7761C39.2123 37.6301 39.1841 37.4854 39.1287 37.3504C39.0733 37.2153 38.9919 37.0924 38.889 36.9888Z" fill="black"/>
</svg>
