<svg width="36" height="37" viewBox="0 0 36 37" fill="none" xmlns="http://www.w3.org/2000/svg">
<path d="M13.3301 32.3335C14.5727 32.3335 15.5801 31.3261 15.5801 30.0835C15.5801 28.8409 14.5727 27.8335 13.3301 27.8335C12.0874 27.8335 11.0801 28.8409 11.0801 30.0835C11.0801 31.3261 12.0874 32.3335 13.3301 32.3335Z" fill="black"/>
<path d="M27 32.3335C28.2426 32.3335 29.25 31.3261 29.25 30.0835C29.25 28.8409 28.2426 27.8335 27 27.8335C25.7574 27.8335 24.75 28.8409 24.75 30.0835C24.75 31.3261 25.7574 32.3335 27 32.3335Z" fill="black"/>
<path d="M33.08 5.70348C32.9869 5.58877 32.8696 5.4961 32.7365 5.43212C32.6034 5.36815 32.4577 5.33446 32.31 5.33348H11.49L12.14 7.33348H31L28.33 19.3335H13.33L8.75999 4.86348C8.71056 4.70994 8.62472 4.57064 8.50979 4.45745C8.39487 4.34427 8.25427 4.26057 8.09999 4.21348L3.99999 2.95348C3.87392 2.91474 3.74145 2.90121 3.61016 2.91367C3.47886 2.92612 3.3513 2.96431 3.23476 3.02606C2.9994 3.15078 2.82323 3.36388 2.74499 3.61848C2.66675 3.87309 2.69286 4.14835 2.81757 4.38371C2.94228 4.61907 3.15538 4.79524 3.40999 4.87348L6.99999 5.97348L11.59 20.4735L9.94999 21.8135L9.81999 21.9435C9.41432 22.411 9.18439 23.0053 9.16979 23.6241C9.15518 24.2429 9.35683 24.8474 9.73999 25.3335C10.0125 25.6649 10.3589 25.928 10.7513 26.1017C11.1438 26.2753 11.5714 26.3547 12 26.3335H28.69C28.9552 26.3335 29.2096 26.2281 29.3971 26.0406C29.5846 25.8531 29.69 25.5987 29.69 25.3335C29.69 25.0683 29.5846 24.8139 29.3971 24.6264C29.2096 24.4388 28.9552 24.3335 28.69 24.3335H11.84C11.7248 24.3295 11.6126 24.296 11.5142 24.236C11.4159 24.1761 11.3346 24.0918 11.2783 23.9912C11.222 23.8907 11.1926 23.7774 11.1929 23.6621C11.1932 23.5469 11.2232 23.4337 11.28 23.3335L13.69 21.3335H29.13C29.3611 21.3391 29.5871 21.2645 29.7695 21.1223C29.9518 20.9801 30.0792 20.7791 30.13 20.5535L33.3 6.55348C33.3304 6.4044 33.3264 6.25034 33.2883 6.10305C33.2501 5.95575 33.1789 5.81909 33.08 5.70348Z" fill="black"/>
</svg>
